<?xml version="1.0"?>
<svg width="577.00869" height="614.65067" xmlns="http://www.w3.org/2000/svg" xmlns:svg="http://www.w3.org/2000/svg" data-name="Layer 1">
 <g class="layer">
  <title>Layer 1</title>
  <ellipse cx="89.54" cy="152.33" fill="#e6e6e6" id="svg_3" rx="8.45" ry="11.33"/>
  <ellipse cx="444.54" cy="258.33" fill="#e6e6e6" id="svg_4" rx="8.45" ry="11.33"/>
  <ellipse cx="212.54" cy="11.33" fill="#e6e6e6" id="svg_5" rx="8.45" ry="11.33"/>
  <path d="m363.98,418.14l-9.82,-59.08a4.58,4.58 0 0 1 3.76,-5.26l44.62,-7.42a4.58,4.58 0 0 1 5.26,3.76l9.82,59.08a4.58,4.58 0 0 1 -3.76,5.26l-44.62,7.42a4.58,4.58 0 0 1 -5.26,-3.76z" fill="#3f3d56" id="svg_6"/>
  <path d="m364.44,399.72l-6.32,-37.98a4.29,4.29 0 0 1 3.53,-4.92l38.34,-6.38a4.29,4.29 0 0 1 4.92,3.52l8.75,52.57a4.29,4.29 0 0 1 -3.52,4.93l-23.76,3.95a19.09,19.09 0 0 1 -21.94,-15.69z" fill="#fff" id="svg_7"/>
  <path d="m366.09,371.31a4.19,4.19 0 0 1 3.45,-4.81l26.59,-4.43a4.18,4.18 0 1 1 1.38,8.26l-26.6,4.42a4.19,4.19 0 0 1 -4.82,-3.44z" fill="#6c63ff" id="svg_8"/>
  <path d="m368.23,384.15a4.19,4.19 0 0 1 3.44,-4.81l26.6,-4.43a4.18,4.18 0 1 1 1.37,8.26l-26.6,4.42a4.19,4.19 0 0 1 -4.81,-3.44z" fill="#6c63ff" id="svg_9"/>
  <path d="m370.37,396.99a4.19,4.19 0 0 1 3.44,-4.81l26.59,-4.43a4.18,4.18 0 1 1 1.38,8.26l-26.6,4.42a4.19,4.19 0 0 1 -4.81,-3.44z" fill="#6c63ff" id="svg_10"/>
  <path d="m343.84,362.46a11.97,11.97 0 0 1 2.69,-18.16l-15.56,-74.1l20.63,7.93l11.94,70.8a12.03,12.03 0 0 1 -19.7,13.53z" fill="#ffb8b8" id="svg_11"/>
  <polygon fill="#ffb6b6" id="svg_12" points="336.978 596.816 353.955 596.815 362.032 531.329 336.975 531.33 336.978 596.816"/>
  <path d="m332.64,591.28l4.78,0l18.66,-7.59l10,7.59l0,0a21.31,21.31 0 0 1 21.31,21.3l0,0.7l-54.75,0l0,-22z" fill="#2f2e41" id="svg_13"/>
  <polygon fill="#ffb6b6" id="svg_14" points="183.573 574.742 198.768 582.315 235.209 527.31 212.783 516.133 183.573 574.742"/>
  <path d="m182.17,567.85l4.27,2.14l20.08,1.53l5.57,11.25l0,0a21.31,21.31 0 0 1 9.57,28.57l-0.31,0.62l-49,-24.42l9.82,-19.69z" fill="#2f2e41" id="svg_15"/>
  <path d="m344.5,299.41l-107.95,2.81l1.87,52.57s-1.87,14.08 1.88,17.84s5.63,3.75 3.76,10.32s-6.74,69.35 -6.74,69.35s-44.3,78.34 -42.42,80.22s3.75,0 1.87,4.69s-3.75,2.82 -1.87,4.7a69.14,69.14 0 0 1 4.69,5.63l30.6,0s1.71,-9.39 1.71,-10.33s1.88,-6.57 1.88,-7.51s53.46,-57.57 53.46,-57.57l11.26,-93.87l27.22,91.99s0,80.73 1.88,82.6s1.88,0.94 0.94,4.7s-4.7,2.81 -1.88,5.63s3.76,-1.88 2.82,2.81l-0.94,4.7l36.06,0.4s3.76,-7.91 1.88,-10.73s-1.77,-2.04 0.52,-6.65s3.23,-5.55 2.29,-6.49s-0.93,-5.93 -0.93,-5.93s-13.54,-184.62 -13.54,-187.44a9.36,9.36 0 0 1 0.78,-4.22l0,-3.82l-3.6,-13.55l-7.5,-32.85z" fill="#2f2e41" id="svg_16"/>
  <polygon fill="#2f2e41" id="svg_18" points="288.604 115.052 342.675 224.404 332.096 357.116 263.002 350.803 250.612 131.022 288.604 115.052"/>
  <path d="m364.52,342.47l-31.59,-2.89l-0.05,-0.4l-21.2,-175.56l4.74,-13.15a19.27,19.27 0 0 1 14.42,-12.33l0,0a19.18,19.18 0 0 1 22.48,15.34l5.68,30.65l8.05,103.6l-2.53,54.74z" fill="#2f2e41" id="svg_19"/>
  <path d="m282.26,131.27l6.38,-15.24l19.72,0.34l20.56,29.09l21.59,90.78s7.75,66.31 0,69.81s-34.03,-0.83 -34.03,-0.83l-34.22,-173.95z" fill="#6c63ff" id="svg_20"/>
  <path d="m308.36,116.37s42.48,24.56 44.14,37.38s7.23,169.72 7.23,169.72l-15.03,-9.71l-4.1,-57.18l-18.34,-117.08l-13.9,-23.13z" fill="#2f2e41" id="svg_21"/>
  <circle cx="298.33" cy="80.27" fill="#ffb8b8" id="svg_22" r="28.95"/>
  <path d="m265.49,61.25c3.25,-5.03 9.35,-8.38 15.26,-7.44a20.85,20.85 0 0 1 34.94,-12.16a6.48,6.48 0 0 1 6.34,-0.63a13.37,13.37 0 0 1 5.15,4.13a30,30 0 0 1 4.19,30.52c0.73,-2.62 -1.91,-5.1 -4.57,-5.69c-2.66,-0.59 -5.45,-0.03 -8.15,-0.41c-3.46,-0.49 -6.56,-2.5 -10.03,-2.95c-2.91,-0.38 -5.84,0.36 -8.68,1.11c-2.83,0.75 -5.75,1.51 -8.67,1.17c-2.91,-0.35 -6.67,10.7 -6.62,18.48c0.01,1.48 -0.29,3.37 -1.73,3.68c-1.78,0.39 -2.81,-2.06 -4.5,-2.73a3.13,3.13 0 0 0 -3.83,2.04a5.09,5.09 0 0 0 0.97,4.56a15.06,15.06 0 0 0 3.65,3.17l-0.69,0.58c-1.16,1.52 -3.56,1.59 -5.23,0.65a11.28,11.28 0 0 1 -3.75,-4.28c-3.09,-5.13 -5.79,-10.6 -6.88,-16.49s-0.42,-12.28 2.83,-17.31z" fill="#2f2e41" id="svg_23"/>
  <path d="m202.42,275.68l57.85,-62.06a6.48,6.48 0 0 1 9.15,-0.32l46.87,43.69a6.48,6.48 0 0 1 0.32,9.15l-57.84,62.06a6.48,6.48 0 0 1 -9.16,0.32l-46.87,-43.68a6.48,6.48 0 0 1 -0.32,-9.16z" fill="#e6e6e6" id="svg_24"/>
  <path d="m223.49,260.29l37.19,-39.9a6.07,6.07 0 0 1 8.57,-0.3l40.28,37.54a6.07,6.07 0 0 1 0.3,8.58l-51.47,55.22a6.07,6.07 0 0 1 -8.58,0.3l-24.95,-23.26a27.05,27.05 0 0 1 -1.34,-38.18z" fill="#fff" id="svg_25"/>
  <path d="m256.82,237.6a5.93,5.93 0 0 1 8.38,-0.29l27.94,26.04a5.93,5.93 0 0 1 -8.08,8.67l-27.94,-26.04a5.93,5.93 0 0 1 -0.3,-8.38z" fill="#e6e6e6" id="svg_26"/>
  <path d="m244.25,251.09a5.93,5.93 0 0 1 8.38,-0.29l27.94,26.04a5.93,5.93 0 1 1 -8.08,8.67l-27.95,-26.04a5.93,5.93 0 0 1 -0.29,-8.38z" fill="#e6e6e6" id="svg_27"/>
  <path d="m231.68,264.58a5.93,5.93 0 0 1 8.37,-0.29l27.95,26.04a5.93,5.93 0 0 1 -8.09,8.67l-27.94,-26.04a5.93,5.93 0 0 1 -0.29,-8.38z" fill="#e6e6e6" id="svg_28"/>
  <path d="m299.66,338.55l-20,28.64l-0.93,1.12a11.11,11.11 0 0 1 -6.34,3.78q-0.53,0.11 -1.06,0.16a10.83,10.83 0 0 1 -1.32,0.06c-0.25,-0.01 -0.5,-0.02 -0.75,-0.04a11.08,11.08 0 0 1 -4.18,-1.22l-8.53,-5.96a3.42,3.42 0 0 1 -1.37,-1.98a3.47,3.47 0 0 1 -0.08,-1.22a3.42,3.42 0 0 1 0.6,-1.58l24.62,-35.26a3.44,3.44 0 0 1 4.79,-0.85l13.7,9.56c0.04,0.03 0.07,0.05 0.1,0.07c0.02,0.02 0.04,0.03 0.06,0.05c0.03,0.02 0.05,0.04 0.08,0.07c0.03,0.02 0.06,0.05 0.1,0.08c0.02,0.02 0.05,0.05 0.08,0.08l0.02,0.01c0.03,0.04 0.07,0.07 0.1,0.11c0.04,0.04 0.07,0.07 0.1,0.11c0.03,0.03 0.05,0.06 0.07,0.08l0,0.01c0.07,0.08 0.13,0.16 0.19,0.25c0.02,0.03 0.04,0.06 0.05,0.09l0.01,0.01c0.02,0.02 0.03,0.04 0.04,0.07c0.04,0.06 0.08,0.13 0.11,0.2a3.53,3.53 0 0 1 0.16,0.36c0.01,0.04 0.02,0.08 0.04,0.12c0.01,0.04 0.02,0.07 0.03,0.1l0,0.01l0,0.01c0.01,0.03 0.02,0.06 0.03,0.09c0.01,0.05 0.02,0.11 0.03,0.17c0.01,0.01 0.01,0.03 0.01,0.04c0.01,0.02 0.01,0.03 0.01,0.05c0,0.01 0.01,0.03 0.01,0.04l0,0.03c0.01,0.04 0.02,0.09 0.02,0.13c0.01,0.06 0.01,0.12 0.01,0.18c0.01,0.04 0.01,0.09 0.01,0.14c0,0.04 0,0.08 0,0.12a0.29,0.29 0 0 1 0,0.04c0,0.04 0,0.08 -0.01,0.13c0,0.1 -0.01,0.21 -0.03,0.32c-0.01,0.04 -0.02,0.08 -0.02,0.12c-0.01,0.05 -0.02,0.1 -0.03,0.14c-0.01,0.02 -0.01,0.04 -0.02,0.05c0,0.03 -0.01,0.06 -0.02,0.08c-0.01,0.03 -0.02,0.06 -0.02,0.09l-0.03,0.07c-0.01,0.04 -0.02,0.08 -0.04,0.12c-0.01,0.02 -0.02,0.05 -0.03,0.07a3.44,3.44 0 0 1 -0.25,0.49c-0.01,0.02 -0.02,0.04 -0.03,0.06c-0.03,0.04 -0.06,0.09 -0.09,0.13z" fill="#fff" id="svg_29"/>
  <circle cx="286.12" cy="336.7" fill="#6c63ff" id="svg_30" r="2.94"/>
  <path d="m252.96,367.72a11.97,11.97 0 0 1 2.69,-18.15l-15.57,-74.1l20.63,7.93l11.94,70.79a12.03,12.03 0 0 1 -19.69,13.53z" fill="#ffb8b8" id="svg_31"/>
  <path d="m241.53,337.66l-8.4,-54.09l-3.15,-103.88l2.34,-31.13a19.18,19.18 0 0 1 20.71,-17.68a19.27,19.27 0 0 1 15.66,10.71l6.13,12.57l-2.19,177.22l-31.1,6.28z" fill="#2f2e41" id="svg_32"/>
  <path d="m275.66,92.01a2,2 0 1 1 3.34,1.6l3.36,5.52a1,1 0 0 1 -1.71,1.04l-3.78,-6.21a1.99,1.99 0 0 1 -1.21,-1.95z" fill="#fff" id="svg_34"/>
  <rect fill="#2f2e41" height="3" id="svg_35" rx="0.5" transform="rotate(153.237 911.24 41.0824)" width="1" x="1500.25" y="276.9"/>
 </g>
</svg>